<svg width="21" height="20" xmlns="http://www.w3.org/2000/svg" xmlns:xlink="http://www.w3.org/1999/xlink"><defs><path id="path-1" d="M0 0h20v20.004H0z"/></defs><g id="Main" stroke="none" stroke-width="1" fill="none" fill-rule="evenodd"><g id="Desktop-HD-/-Export" transform="translate(-642 -6271)"><g id="Reviews" transform="translate(-102 5637.87)"><g id="User-/-Review-/-Active" transform="translate(593 263.87)"><g id="User-/-Autor" transform="translate(61.24 339.213)"><g id="Group" transform="translate(90.409 30)"><g id="Group-3"><mask id="mask-2" fill="#fff"><use xlink:href="#path-1"/></mask><path d="M18.148 14.048c-.043.977-.207 1.505-.344 1.857a3.318 3.318 0 01-1.9 1.899c-.351.137-.882.3-1.856.344-1.055.047-1.371.058-4.04.058-2.67 0-2.99-.011-4.04-.058-.978-.043-1.505-.207-1.857-.344a3.078 3.078 0 01-1.149-.747 3.11 3.11 0 01-.746-1.148c-.137-.352-.301-.884-.344-1.857-.047-1.055-.059-1.371-.059-4.04 0-2.67.012-2.99.059-4.04.043-.978.207-1.505.344-1.857a3.04 3.04 0 01.75-1.15 3.105 3.105 0 011.149-.745c.352-.137.883-.301 1.856-.344 1.055-.047 1.372-.059 4.04-.059 2.674 0 2.99.012 4.041.059.977.043 1.505.207 1.857.344.433.16.828.414 1.148.746.333.324.587.715.747 1.149.137.352.3.883.344 1.856.047 1.055.058 1.372.058 4.04 0 2.67-.011 2.982-.058 4.037m1.801-8.167c-.047-1.063-.219-1.793-.465-2.427a4.882 4.882 0 00-1.157-1.774 4.923 4.923 0 00-1.77-1.152C15.92.28 15.193.109 14.131.063 13.06.012 12.72 0 10.004 0 7.288 0 6.948.012 5.88.059 4.818.105 4.088.277 3.455.524A4.88 4.88 0 001.68 1.68 4.924 4.924 0 00.528 3.45C.28 4.089.109 4.815.063 5.878.012 6.948 0 7.288 0 10.004s.012 3.056.059 4.123c.046 1.062.219 1.793.465 2.426a4.933 4.933 0 001.156 1.774c.5.508 1.106.903 1.77 1.153.638.246 1.364.418 2.427.465 1.067.047 1.407.059 4.123.059s3.056-.012 4.123-.059c1.063-.047 1.793-.219 2.426-.465a5.116 5.116 0 002.927-2.927c.247-.637.419-1.364.465-2.426.047-1.067.059-1.407.059-4.123s-.004-3.056-.05-4.123" id="Fill-1" fill="#414141" mask="url(#mask-2)"/></g><path d="M10.004 13.337a3.334 3.334 0 11.001-6.667 3.334 3.334 0 01-.001 6.667m0-8.472a5.14 5.14 0 00-5.139 5.139 5.14 5.14 0 105.139-5.139" id="Fill-4" fill="#414141"/><path d="M16.546 4.662a1.2 1.2 0 11-2.4 0 1.2 1.2 0 012.4 0" id="Fill-6" fill="#414141"/></g></g></g></g></g></g></svg>