<svg xmlns="http://www.w3.org/2000/svg" xmlns:xlink="http://www.w3.org/1999/xlink" width="30" height="31"><defs><path id="path-1" d="M0 0h30v30H0z"/></defs><g id="UI" fill="none" fill-rule="evenodd" stroke="none" stroke-width="1"><g id="Desktop-HD" transform="translate(-20 -6189)"><g id="Footer" transform="translate(20 6172)"><g id="Copyleft" transform="translate(0 8.249)"><g id="ic-copyleft" transform="translate(0 9)"><path id="Fill-1" fill="#8080FF" d="M15.197 5.772c-3.642 0-6.797 2.12-8.297 5.192l1.871 1.376a6.965 6.965 0 016.426-4.295A6.963 6.963 0 0122.152 15a6.963 6.963 0 01-6.955 6.955A6.95 6.95 0 019.511 19h-2.63c1.493 3.091 4.66 5.23 8.316 5.23 5.088 0 9.228-4.14 9.228-9.229 0-5.088-4.14-9.228-9.228-9.228"/><mask id="mask-2" fill="#fff"><use xlink:href="#path-1"/></mask><path id="Fill-3" fill="#8080FF" d="M15 28.041c-7.19 0-13.041-5.85-13.041-13.04C1.959 7.808 7.809 1.958 15 1.958c7.191 0 13.041 5.85 13.041 13.041 0 7.191-5.85 13.041-13.041 13.041M15 0C6.729 0 0 6.729 0 15s6.729 15 15 15 15-6.729 15-15S23.271 0 15 0" mask="url(#mask-2)"/></g></g></g></g></g></svg>