<?xml version="1.0" encoding="UTF-8"?>
<svg width="21px" height="20px" viewBox="0 0 21 20" version="1.1" xmlns="http://www.w3.org/2000/svg" xmlns:xlink="http://www.w3.org/1999/xlink">
    <title>Icons / ic-instagram</title>
    <defs>
        <polygon id="path-1" points="0 0 20 0 20 20.003805 0 20.003805"></polygon>
    </defs>
    <g id="Main" stroke="none" stroke-width="1" fill="none" fill-rule="evenodd">
        <g id="Desktop-HD-/-Export" transform="translate(-642.000000, -6271.000000)">
            <g id="Reviews" transform="translate(-102.000000, 5637.870104)">
                <g id="User-/-Review-/-Active" transform="translate(593.000000, 263.870104)">
                    <g id="User-/-Autor" transform="translate(61.239257, 339.212548)">
                        <g id="Group" transform="translate(90.408854, 30.000000)">
                            <g id="Group-3" transform="translate(0.000000, 0.000000)">
                                <mask id="mask-2" fill="white">
                                    <use xlink:href="#path-1"></use>
                                </mask>
                                <g id="Clip-2"></g>
                                <path d="M18.1477813,14.048418 C18.1047201,15.0253591 17.940657,15.5529371 17.803879,15.9046296 C17.4677276,16.7760708 16.7760865,17.4677511 15.9046061,17.8038633 C15.5529527,17.9406413 15.0215776,18.1047045 14.0484337,18.1476091 C12.993356,18.1946241 12.6768954,18.2062506 10.007845,18.2062506 C7.33883368,18.2062506 7.01841923,18.1946241 5.96713883,18.1476091 C4.99019771,18.1047045 4.4626589,17.9406413 4.11096636,17.8038633 C3.67730096,17.6435973 3.28254722,17.3895754 2.96213277,17.057417 C2.62997435,16.7330096 2.37595244,16.3422488 2.21568649,15.9085834 C2.07890847,15.5568909 1.91480616,15.0253591 1.87190155,14.052411 C1.82488655,12.9972942 1.81329918,12.6807161 1.81329918,10.0116657 C1.81329918,7.34261524 1.82488655,7.02223993 1.87190155,5.97111611 C1.91480616,4.99413585 2.07890847,4.46659704 2.21568649,4.1149045 C2.37595244,3.68108251 2.62997435,3.28648536 2.96608657,2.96591432 C3.29029823,2.63375591 3.68109817,2.37973399 4.11492016,2.21962463 C4.4666127,2.08284661 4.99814445,1.9187443 5.97109263,1.87572225 C7.02620939,1.82886384 7.34278748,1.81708073 10.0116813,1.81708073 C12.6846856,1.81708073 13.0011071,1.82886384 14.0524266,1.87572225 C15.0293677,1.9187443 15.5568674,2.08284661 15.9085991,2.21962463 C16.3422645,2.37973399 16.7370182,2.63375591 17.0573935,2.96591432 C17.3895911,3.29032172 17.6435739,3.68108251 17.803879,4.1149045 C17.940657,4.46659704 18.1047201,4.99797221 18.1477813,5.97111611 C18.1946397,7.02619373 18.2063837,7.34261524 18.2063837,10.0116657 C18.2063837,12.6807161 18.1946397,12.9933404 18.1477813,14.048418 M19.9491878,5.88119651 C19.9022902,4.81828958 19.7304369,4.08758021 19.4842443,3.45438488 C19.2301832,2.78227789 18.8394224,2.18055638 18.327464,1.68034186 C17.8272494,1.17233717 17.221535,0.777583437 16.557179,0.527515322 C15.9203822,0.281322715 15.1934309,0.109430246 14.1305631,0.0625718339 C13.0597094,0.0117596214 12.7198,-2.34879257e-05 10.0038912,-2.34879257e-05 C7.28798232,-2.34879257e-05 6.94803375,0.0117596214 5.88117302,0.0585788865 C4.81830524,0.105476445 4.08759587,0.277486354 3.45455713,0.523561521 C2.78229355,0.777583437 2.18057204,1.16834423 1.68035752,1.68034186 C1.17231369,2.18055638 0.777755682,2.78627084 0.527570127,3.45058767 C0.281338373,4.08758021 0.109445904,4.81433578 0.0625874925,5.87720356 C0.0117361335,6.94805724 -7.82930855e-06,7.28796667 -7.82930855e-06,10.0038755 C-7.82930855e-06,12.7197843 0.0117361335,13.0597329 0.0586336917,14.1265937 C0.105492103,15.1894614 0.277502012,15.9201708 0.523733766,16.5533661 C0.777755682,17.2254731 1.17231369,17.8271946 1.68035752,18.3274483 C2.18057204,18.835453 2.7862865,19.2301676 3.45060333,19.4802357 C4.08759587,19.7264674 4.81435144,19.8983599 5.8773758,19.9451792 C6.94407995,19.9921942 7.28418511,20.0038207 10.0000548,20.0038207 C12.7159636,20.0038207 13.0559514,19.9921942 14.1228121,19.9451792 C15.1856799,19.8983599 15.9163892,19.7264674 16.549428,19.4802357 C17.8937986,18.960487 18.9566663,17.8975801 19.476415,16.5533661 C19.7225293,15.9163736 19.8945392,15.1894614 19.9413585,14.1265937 C19.988256,13.0597329 19.9999922,12.7197843 19.9999922,10.0038755 C19.9999922,7.28796667 19.9960462,6.94805724 19.9491878,5.88119651" id="Fill-1" fill="#414141" mask="url(#mask-2)"></path>
                            </g>
                            <path d="M10.0038833,13.3372428 C8.16340863,13.3372428 6.67055522,11.8445068 6.67055522,10.0038755 C6.67055522,8.16328336 8.16340863,6.67050825 10.0038833,6.67050825 C11.8445146,6.67050825 13.3372506,8.16328336 13.3372506,10.0038755 C13.3372506,11.8445068 11.8445146,13.3372428 10.0038833,13.3372428 M10.0038833,4.86514799 C7.16693339,4.86514799 4.86515582,7.16676897 4.86515582,10.0038755 C4.86515582,12.840982 7.16693339,15.142603 10.0038833,15.142603 C12.841029,15.142603 15.14265,12.840982 15.14265,10.0038755 C15.14265,7.16676897 12.841029,4.86514799 10.0038833,4.86514799" id="Fill-4" fill="#414141"></path>
                            <path d="M16.5455995,4.66198135 C16.5455995,5.32445829 16.0084306,5.8616663 15.3457971,5.8616663 C14.6833201,5.8616663 14.1461121,5.32445829 14.1461121,4.66198135 C14.1461121,3.99934782 14.6833201,3.46233555 15.3457971,3.46233555 C16.0084306,3.46233555 16.5455995,3.99934782 16.5455995,4.66198135" id="Fill-6" fill="#414141"></path>
                        </g>
                    </g>
                </g>
            </g>
        </g>
    </g>
</svg>