<svg xmlns="http://www.w3.org/2000/svg" width="67" height="67"><g id="UI" fill="none" fill-rule="evenodd" stroke="none" stroke-width="1"><g id="Desktop-HD" fill="#8080FF" transform="translate(-1352 -6172)"><g id="Footer" transform="translate(20 6172)"><g id="Logos-/-Bakin" transform="translate(1332.17)"><g id="Group-6"><path id="Fill-1" d="M5.853 26.822c-.772.386-1.544.45-2.38.193-.836-.257-1.479-.772-1.866-1.48-.385-.707-.449-1.543-.192-2.38.321-1.028 1.093-1.8 2.123-2.058l.256 1.158a1.763 1.763 0 00-1.286 1.222c-.193.579-.129 1.03.13 1.48.256.45.642.77 1.221.9.515.193 1.03.129 1.48-.064.45-.258.771-.643.9-1.158.193-.643.064-1.286-.386-1.737l.836-.771c.643.707.901 1.8.58 2.83a2.805 2.805 0 01-1.416 1.865"/><path id="Fill-3" d="M5.338 14.922l.965.579-.772 1.415 4.182 2.38-.515.965-4.245-2.381-.772 1.416-.965-.579z"/><path id="Fill-5" d="M9.005 10.355l.771-.9 2.06 4.18c.578 1.095.45 2.06-.323 2.83l-.772-.643c.451-.45.515-.835.322-1.414L6.625 13.12l.772-.9 3.023.9-1.415-2.766z"/><path id="Fill-7" d="M13.636 6.303a2.953 2.953 0 012.187-.515c.771.13 1.415.58 1.93 1.223.514.707.707 1.415.58 2.187-.13.772-.516 1.415-1.159 1.865l-1.93 1.48-3.473-4.825 1.865-1.415zm2.83 3.924c.45-.322.643-.708.708-1.158.064-.45-.065-.9-.386-1.35-.322-.45-.708-.708-1.158-.772-.45-.065-.9 0-1.35.321l-.965.643 2.186 3.023.965-.707z"/><path id="Fill-9" d="M23.992 7.461l-1.351-3.345-.965 4.309-.836.322-2.251-5.532 1.093-.45 1.351 3.345.965-4.31.836-.321 2.251 5.531z"/><path id="Fill-11" d="M29.91 0l.963 5.853-1.157.257-.322-2.058-.642.129-1.03 2.251-1.287.193 1.095-2.38a1.917 1.917 0 01-1.545-1.544c-.063-.514 0-1.029.323-1.479.322-.45.77-.707 1.287-.772L29.91 0zm-.71 3.023l-.256-1.737-1.223.193c-.45.064-.707.515-.644.965.066.45.517.836.966.772l1.157-.193z"/><path id="Fill-13" d="M38.464 2.637a1.99 1.99 0 011.35.708c.323.385.452.835.323 1.415-.065.514-.322.964-.773 1.222-.385.257-.9.385-1.48.257l-2.25-.386.9-5.853 3.667.578-.193 1.094-2.51-.386-.191 1.094 1.157.257zm-.45 2.508c.45.065.837-.128.9-.643.065-.45-.192-.772-.707-.836l-1.03-.129-.256 1.48 1.093.128z"/><path id="Fill-15" d="M44.575 8.297l.063-1.158-2.186-.836-.707.9-1.158-.449 4.116-4.825 1.351.515-.193 6.303-1.286-.45zm-1.352-2.895l1.544.58.13-2.574-1.674 1.994z"/><path id="Fill-17" d="M50.685 12.028l-1.094-.772-.193-3.473-1.544 2.315-.964-.643 3.345-4.953.965.644-1.48 2.187 3.152-1.03 1.093.772-3.473 1.158z"/><path id="Fill-19" d="M53.966 15.373l2.637-2.508-4.374.643-.578-.643 4.373-4.053.772.836-2.638 2.509 4.374-.643.58.643-4.375 4.052z"/><path id="Fill-21" d="M62.648 17.56l.579 1.029-5.145 2.959-.58-1.03 2.124-1.221-1.094-1.93-2.123 1.222-.578-1.029 5.145-2.958.579 1.028-2.058 1.158 1.093 1.93z"/><path id="Fill-23" d="M59.883 26.822l.9-.643-.707-2.252-1.158-.063-.386-1.223 6.304.257.386 1.415-5.081 3.73-.258-1.221zm1.415-2.83l.45 1.543 2.123-1.48-2.573-.063z"/><path id="Fill-25" d="M6.368 38.721c.193.772 0 1.544-.451 2.188-.449.642-1.093 1.092-1.929 1.221-.836.194-1.544.065-2.251-.386-.644-.386-1.094-1.029-1.286-1.8L0 37.626l5.853-1.22.515 2.314zm-4.76.965c.129.514.386.9.772 1.158.386.257.901.321 1.415.192.514-.127.965-.385 1.222-.77.257-.388.386-.837.257-1.352l-.257-1.158-3.602.772.193 1.158z"/><path id="Fill-27" d="M3.216 47.984l3.28-1.479-4.374-.836-.385-.837 5.402-2.445.451 1.094-3.345 1.48 4.374.835.386.836-5.403 2.445z"/><path id="Fill-29" d="M8.619 53.386c-.45.322-.9.386-1.415.258-.515-.129-.965-.45-1.287-.965-.643-.9-.707-1.8-.128-2.638l1.029.515c-.386.45-.386.965 0 1.48.386.514.836.643 1.222.385.386-.257.386-.707.064-1.222l-.45-.579.837-.579.321.45c.322.451.772.58 1.094.323.385-.258.385-.644.128-1.094-.321-.386-.707-.579-1.222-.45l-.129-1.158c.901-.128 1.673.128 2.251.964.322.451.515.965.451 1.48s-.257.9-.708 1.158c-.45.321-.9.386-1.415.193.129.58-.128 1.093-.643 1.48"/><path id="Fill-31" d="M11.385 58.596l.45-1.029L10.1 55.96l-.965.515-.901-.9 5.596-2.895 1.03 1.03-2.574 5.787-.9-.9zm-.193-3.216l1.158 1.094 1.094-2.315-2.252 1.221z"/><path id="Fill-33" d="M16.852 62.391l1.865-3.087-4.052 1.801-.772-.45 3.087-5.081 1.029.578-1.865 3.088 4.052-1.801.772.45-3.087 5.081z"/><path id="Fill-35" d="M25.278 59.561l1.093.386-1.993 5.596-1.094-.386.836-2.316-2.058-.707-.836 2.316-1.094-.386 1.994-5.597 1.094.387-.772 2.251 2.059.707z"/><path id="Fill-37" d="M34.026 60.72c.836 0 1.48.256 2.058.77.579.58.837 1.222.9 2.06.065.835-.192 1.543-.771 2.122a2.64 2.64 0 01-1.994.9l-2.38.064-.192-5.917h2.379zm.129 4.823c.515 0 .9-.193 1.222-.579.32-.386.45-.836.45-1.35 0-.58-.193-.965-.514-1.288a1.53 1.53 0 00-1.287-.45l-1.222.065.129 3.731 1.222-.129z"/><path id="Fill-39" d="M38.207 65.286c.707-.064.965-.45.707-1.544l-.836-3.408 3.924-.965 1.415 5.788-1.158.258-1.157-4.695-1.673.385.579 2.316c.257 1.029.129 1.736-.194 2.187-.321.449-.771.643-1.35.707l-.257-1.03z"/><path id="Fill-41" d="M47.018 57.117l2.573 5.403-1.029.515-.9-1.865-.58.257-.32 2.444-1.223.579.386-2.573c-.772.064-1.608-.322-1.929-1.093-.258-.515-.258-1.03-.065-1.48.192-.45.515-.901 1.028-1.093l2.06-1.094zm.13 3.088l-.773-1.61-1.093.516a.829.829 0 00-.323 1.158c.194.45.708.643 1.094.45l1.094-.514z"/><path id="Fill-43" d="M53 52.357c.579-.58 1.223-.9 2.059-.9.772 0 1.479.257 2.123.9.579.579.9 1.287.965 2.059.064.77-.258 1.479-.772 2.058l-1.608 1.737-4.31-4.117L53 52.357zm3.474 3.345c.386-.386.514-.772.514-1.286 0-.451-.257-.901-.642-1.287-.387-.386-.837-.58-1.287-.58-.451 0-.901.194-1.222.58l-.836.836 2.7 2.574.773-.837z"/><path id="Fill-45" d="M60.205 51.006l1.351-2.122.964.578-1.994 3.088-5.017-3.216 1.929-3.088.965.579-1.35 2.059 1.093.707 1.222-1.93.965.579-1.222 1.93z"/><path id="Fill-47" d="M62.327 47.662c.386-.644.193-1.093-.836-1.48l-3.28-1.286L59.69 41.1l5.532 2.187-.451 1.094-4.502-1.801-.643 1.608 2.186.836c.965.386 1.544.9 1.673 1.415.128.515.064 1.03-.193 1.544l-.965-.322z"/><path id="Fill-49" d="M66.508 37.113l-1.093.193-.386 2.316 1.029.514-.193 1.222-5.532-3.022.258-1.415 6.239-1.094-.322 1.286zM64 39.107l.257-1.607-2.51.385L64 39.107z"/><path id="Fill-51" d="M3.666 31.003a1.093 1.093 0 10-2.185-.001 1.093 1.093 0 002.185 0"/><path id="Fill-53" d="M64.707 31.067a1.093 1.093 0 10-2.186 0 1.093 1.093 0 002.186 0"/><path id="Fill-55" d="M50.235 40.844c-1.094 1.093-2.638 1.736-4.31 1.736H24.378c-3.474 0-9.97-2.765-9.97-9.969 0-6.818 5.724-9.97 9.777-9.97h3.988c1.415 0 2.315 1.03 2.315 2.315 0 1.286-1.029 2.187-2.315 2.187h-3.795c-1.48 0-5.146 1.351-5.146 5.532s3.666 5.402 5.146 5.402h21.29c1.093 0 1.737-.836 1.737-1.8 0-.836-.579-1.8-1.737-1.8H35.57c-1.158 0-2.315-1.159-2.315-2.317v-7.204c0-1.157 1.158-2.315 2.315-2.315h8.17c1.285 0 2.314.9 2.314 2.186a2.306 2.306 0 01-2.315 2.316h-5.66v3.216h7.846c1.672 0 3.216.708 4.31 1.801a6.134 6.134 0 011.801 4.31c0 1.736-.708 3.28-1.8 4.374"/></g></g></g></g></g></svg>