<svg xmlns="http://www.w3.org/2000/svg" xmlns:xlink="http://www.w3.org/1999/xlink" width="31" height="31"><defs><path id="b1dtgvvgca" d="M0 0h30v30H0z"/></defs><g transform="matrix(-1 0 0 1 30.481 .607)" fill="none" fill-rule="evenodd"><path fill="#CDE1FF" d="M15.197 5.772c-3.642 0-6.797 2.12-8.297 5.192l1.871 1.376a6.966 6.966 0 016.426-4.295c3.835 0 6.955 3.12 6.955 6.955s-3.12 6.955-6.955 6.955a6.953 6.953 0 01-5.686-2.956h-2.63c1.493 3.091 4.66 5.23 8.316 5.23 5.088 0 9.228-4.14 9.228-9.229 0-5.088-4.14-9.228-9.228-9.228"/><mask id="3v411d5axb" fill="#fff"><use xlink:href="#b1dtgvvgca"/></mask><path fill="#CDE1FF" d="M15 28.041c-7.19 0-13.041-5.85-13.041-13.04C1.959 7.808 7.809 1.958 15 1.958c7.191 0 13.041 5.85 13.041 13.041 0 7.191-5.85 13.041-13.041 13.041M15 0C6.729 0 0 6.729 0 15s6.729 15 15 15 15-6.729 15-15S23.271 0 15 0" mask="url(#3v411d5axb)"/></g></svg>