<svg width="220" height="82" xmlns="http://www.w3.org/2000/svg" xmlns:xlink="http://www.w3.org/1999/xlink"><defs><path id="path-1" d="M0 0h49.143v49.143H0z"/></defs><g id="Main" stroke="none" stroke-width="1" fill="none" fill-rule="evenodd"><g id="Desktop-HD-/-Export" transform="translate(-609 -6440)"><g id="Reviews" transform="translate(-102 5637.87)"><g id="Group" transform="translate(711.747 802.13)"><text id="Отзывы-Яндекса" font-family="SFUIDisplay-Medium, SF UI Display" font-size="16" font-weight="400" fill="#414141"><tspan x="76.517" y="24.297">Отзывы Яндекса</tspan></text><g id="Group-6" transform="translate(17.769 16.054)"><g id="Group-3"><mask id="mask-2" fill="#fff"><use xlink:href="#path-1"/></mask><path d="M49.143 24.571c0 13.57-11.001 24.572-24.572 24.572C11.001 49.143 0 38.142 0 24.57 0 11.001 11.001 0 24.571 0c13.57 0 24.572 11 24.572 24.571" id="Fill-1" fill="#FC3F1D" mask="url(#mask-2)"/></g><path d="M27.075 14.918h-2.07c-3.795 0-5.788 1.904-5.788 4.722 0 3.199 1.38 4.684 4.216 6.588l2.338 1.561-6.746 10.015h-5.02l6.055-8.949c-3.488-2.475-5.443-4.874-5.443-8.948 0-5.103 3.565-8.568 10.35-8.568h6.746v26.465h-4.638V14.918z" id="Fill-4" fill="#FFF"/></g><g id="Group-6" transform="translate(76.083 38.39)" fill="#F7C70A"><path id="Fill-1" d="M11.077 0l-3 7.385L0 8.077l6.23 5.077L4.154 21l6.923-4.154L18 21l-2.077-7.846 6.23-5.077-8.076-.692z"/><path id="Fill-2" d="M37.039 0l-3 7.385-8.077.692 6.23 5.077L30.117 21l6.923-4.154L43.962 21l-2.077-7.846 6.23-5.077-8.076-.692z"/><path id="Fill-3" d="M63.001 0l-3 7.385-8.077.692 6.231 5.077L56.078 21l6.923-4.154L69.924 21l-2.077-7.846 6.231-5.077-8.077-.692z"/><path id="Fill-4" d="M88.963 0l-3 7.385-8.076.692 6.23 5.077L82.04 21l6.923-4.154L95.887 21l-2.077-7.846 6.23-5.077-8.077-.692z"/><path id="Fill-5" d="M114.926 0l-3 7.385-8.077.692 6.23 5.077L108.004 21l6.923-4.154L121.849 21l-2.077-7.846 6.23-5.077-8.076-.692z"/></g><rect id="Rectangle" stroke="#E9E9EA" stroke-width="2" x="1" y="1" width="217.253" height="80" rx="15"/></g></g></g></g></svg>