<svg xmlns="http://www.w3.org/2000/svg" xmlns:xlink="http://www.w3.org/1999/xlink" width="220" height="82"><defs><path id="c021yiigia" d="M0 0h49.143v49.143H0z"/></defs><g transform="translate(.747)" fill="none" fill-rule="evenodd"><text fill="#414141" font-family="SFUIDisplay-Medium, SF UI Display" font-size="16" font-weight="400"><tspan x="76.517" y="24.297">Отзывы Яндекса</tspan></text><g transform="translate(17.769 16.054)"><mask id="xja4vcoijb" fill="#fff"><use xlink:href="#c021yiigia"/></mask><path fill="#FC3F1D" d="M49.143 24.571c0 13.57-11.001 24.572-24.572 24.572C11.001 49.143 0 38.142 0 24.57 0 11.001 11.001 0 24.571 0c13.57 0 24.572 11 24.572 24.571" mask="url(#xja4vcoijb)"/></g><path fill="#FFF" d="M44.844 30.972h-2.07c-3.795 0-5.788 1.904-5.788 4.722 0 3.2 1.38 4.684 4.216 6.588l2.338 1.561-6.746 10.015h-5.02l6.055-8.949c-3.488-2.475-5.443-4.874-5.443-8.948 0-5.103 3.565-8.568 10.35-8.568h6.746v26.465h-4.638V30.972z"/><path d="M87.16 38.39l-3 7.384-8.077.692 6.23 5.077-2.076 7.846 6.923-4.154 6.923 4.154-2.077-7.846 6.23-5.077-8.076-.692zm25.962 0l-3 7.384-8.077.692 6.23 5.077-2.076 7.846 6.923-4.154 6.923 4.154-2.077-7.846 6.23-5.077-8.076-.692zm25.962 0l-3 7.384-8.077.692 6.23 5.077-2.076 7.846 6.923-4.154 6.923 4.154-2.077-7.846 6.23-5.077-8.076-.692zm25.962 0l-3 7.384-8.076.692 6.23 5.077-2.077 7.846 6.923-4.154 6.924 4.154-2.077-7.846 6.23-5.077-8.077-.692zm25.963 0l-3 7.384-8.077.692 6.23 5.077-2.076 7.846 6.923-4.154 6.923 4.154-2.077-7.846 6.23-5.077-8.076-.692z" fill="#F7C70A"/><rect width="217.253" height="80" x="1" y="1" stroke="#E9E9EA" stroke-width="2" rx="15"/></g></svg>