<svg xmlns="http://www.w3.org/2000/svg" xmlns:xlink="http://www.w3.org/1999/xlink" width="67" height="67" version="1.1" viewBox="0 0 67 67"><title>Logos / Bakin</title><g id="Symbols" fill="none" fill-rule="evenodd" stroke="none" stroke-width="1"><g id="Main-/-Footer" fill="#CDE1FF" transform="translate(-1353.000000, -20.000000)"><g id="Logos-/-Bakin" transform="translate(1353.170300, 20.000000)"><g id="Group-6" transform="translate(0.000000, 0.000000)"><path id="Fill-1" d="M5.8534,26.8218 C5.0814,27.2078 4.3094,27.2718 3.4734,27.0148 C2.6374,26.7578 1.9944,26.2428 1.6074,25.5348 C1.2224,24.8278 1.1584,23.9918 1.4154,23.1548 C1.7364,22.1268 2.5084,21.3548 3.5384,21.0968 L3.7944,22.2548 C3.2164,22.3838 2.7014,22.8338 2.5084,23.4768 C2.3154,24.0558 2.3794,24.5068 2.6374,24.9568 C2.8944,25.4068 3.2804,25.7278 3.8594,25.8568 C4.3744,26.0498 4.8884,25.9858 5.3384,25.7928 C5.7894,25.5348 6.1104,25.1498 6.2394,24.6348 C6.4324,23.9918 6.3034,23.3488 5.8534,22.8978 L6.6894,22.1268 C7.3324,22.8338 7.5904,23.9268 7.2684,24.9568 C7.0754,25.7928 6.5614,26.4358 5.8534,26.8218"/><polygon id="Fill-3" points="5.338 14.922 6.303 15.501 5.531 16.916 9.713 19.296 9.198 20.261 4.953 17.88 4.181 19.296 3.216 18.717"/><path id="Fill-5" d="M9.0052,10.3555 L9.7762,9.4555 L11.8352,13.6355 C12.4142,14.7295 12.2852,15.6945 11.5132,16.4655 L10.7412,15.8225 C11.1922,15.3725 11.2562,14.9865 11.0632,14.4075 L6.6252,13.1215 L7.3972,12.2205 L10.4202,13.1215 L9.0052,10.3555 Z"/><path id="Fill-7" d="M13.6361,6.3032 C14.2791,5.8532 15.0511,5.6602 15.8231,5.7882 C16.5941,5.9172 17.2381,6.3672 17.7531,7.0112 C18.2671,7.7182 18.4601,8.4262 18.3321,9.1982 C18.2031,9.9702 17.8171,10.6132 17.1741,11.0632 L15.2441,12.5422 L11.7711,7.7182 L13.6361,6.3032 Z M16.4661,10.2272 C16.9161,9.9052 17.1091,9.5192 17.1741,9.0692 C17.2381,8.6182 17.1091,8.1692 16.7881,7.7182 C16.4661,7.2682 16.0801,7.0112 15.6301,6.9472 C15.1791,6.8822 14.7301,6.9472 14.2791,7.2682 L13.3151,7.9112 L15.5011,10.9342 L16.4661,10.2272 Z"/><polygon id="Fill-9" points="23.992 7.461 22.641 4.116 21.676 8.425 20.84 8.747 18.589 3.215 19.682 2.765 21.033 6.11 21.998 1.8 22.834 1.479 25.085 7.01"/><path id="Fill-11" d="M29.9095,0 L30.8735,5.853 L29.7165,6.11 L29.3945,4.052 L28.7515,4.181 L27.7225,6.432 L26.4355,6.625 L27.5295,4.245 C26.7575,4.117 26.1145,3.473 25.9855,2.701 C25.9215,2.187 25.9855,1.672 26.3075,1.222 C26.6295,0.772 27.0785,0.515 27.5945,0.45 L29.9095,0 Z M29.2015,3.023 L28.9445,1.286 L27.7225,1.479 C27.2715,1.543 27.0145,1.994 27.0785,2.444 C27.1435,2.894 27.5945,3.28 28.0435,3.216 L29.2015,3.023 Z"/><path id="Fill-13" d="M38.4637,2.6372 C39.0427,2.7012 39.4927,2.9592 39.8147,3.3452 C40.1367,3.7302 40.2657,4.1802 40.1367,4.7602 C40.0717,5.2742 39.8147,5.7242 39.3637,5.9822 C38.9787,6.2392 38.4637,6.3672 37.8847,6.2392 L35.6337,5.8532 L36.5347,0.0002 L40.2007,0.5782 L40.0077,1.6722 L37.4987,1.2862 L37.3067,2.3802 L38.4637,2.6372 Z M38.0137,5.1452 C38.4637,5.2102 38.8507,5.0172 38.9137,4.5022 C38.9787,4.0522 38.7217,3.7302 38.2067,3.6662 L37.1777,3.5372 L36.9207,5.0172 L38.0137,5.1452 Z"/><path id="Fill-15" d="M44.5751,8.2974 L44.6381,7.1394 L42.4521,6.3034 L41.7451,7.2034 L40.5871,6.7544 L44.7031,1.9294 L46.0541,2.4444 L45.8611,8.7474 L44.5751,8.2974 Z M43.2231,5.4024 L44.7671,5.9824 L44.8961,3.4084 L43.2231,5.4024 Z"/><polygon id="Fill-17" points="50.685 12.028 49.591 11.256 49.398 7.783 47.854 10.098 46.89 9.455 50.235 4.502 51.2 5.146 49.72 7.333 52.872 6.303 53.965 7.075 50.492 8.233"/><polygon id="Fill-19" points="53.966 15.373 56.603 12.865 52.229 13.508 51.651 12.865 56.024 8.812 56.796 9.648 54.158 12.157 58.532 11.514 59.112 12.157 54.737 16.209"/><polygon id="Fill-21" points="62.648 17.56 63.227 18.589 58.082 21.548 57.502 20.518 59.626 19.297 58.532 17.367 56.409 18.589 55.831 17.56 60.976 14.602 61.555 15.63 59.497 16.788 60.59 18.718"/><path id="Fill-23" d="M59.8827,26.8218 L60.7837,26.1788 L60.0757,23.9268 L58.9177,23.8638 L58.5317,22.6408 L64.8357,22.8978 L65.2217,24.3128 L60.1407,28.0438 L59.8827,26.8218 Z M61.2977,23.9918 L61.7477,25.5348 L63.8707,24.0558 L61.2977,23.9918 Z"/><path id="Fill-25" d="M6.368,38.7212 C6.561,39.4932 6.368,40.2652 5.917,40.9092 C5.468,41.5512 4.824,42.0012 3.988,42.1302 C3.152,42.3242 2.444,42.1952 1.737,41.7442 C1.093,41.3582 0.643,40.7152 0.451,39.9432 L1.00808251e-13,37.6272 L5.853,36.4062 L6.368,38.7212 Z M1.608,39.6862 C1.737,40.2002 1.994,40.5862 2.38,40.8442 C2.766,41.1012 3.281,41.1652 3.795,41.0362 C4.309,40.9092 4.76,40.6512 5.017,40.2652 C5.274,39.8782 5.403,39.4292 5.274,38.9142 L5.017,37.7562 L1.415,38.5282 L1.608,39.6862 Z"/><polygon id="Fill-27" points="3.216 47.984 6.496 46.505 2.122 45.669 1.737 44.832 7.139 42.387 7.59 43.481 4.245 44.961 8.619 45.796 9.005 46.632 3.602 49.077"/><path id="Fill-29" d="M8.619,53.3862 C8.169,53.7082 7.719,53.7722 7.204,53.6442 C6.689,53.5152 6.239,53.1942 5.917,52.6792 C5.274,51.7782 5.21,50.8782 5.789,50.0412 L6.818,50.5562 C6.432,51.0062 6.432,51.5212 6.818,52.0352 C7.204,52.5502 7.654,52.6792 8.04,52.4212 C8.426,52.1642 8.426,51.7142 8.104,51.1992 L7.654,50.6202 L8.491,50.0412 L8.812,50.4912 C9.134,50.9422 9.584,51.0712 9.906,50.8142 C10.291,50.5562 10.291,50.1702 10.034,49.7202 C9.713,49.3342 9.327,49.1412 8.812,49.2702 L8.683,48.1122 C9.584,47.9842 10.356,48.2402 10.934,49.0762 C11.256,49.5272 11.449,50.0412 11.385,50.5562 C11.321,51.0712 11.128,51.4562 10.677,51.7142 C10.227,52.0352 9.777,52.1002 9.262,51.9072 C9.391,52.4862 9.134,53.0002 8.619,53.3862"/><path id="Fill-31" d="M11.3846,58.5962 L11.8356,57.5672 L10.0986,55.9592 L9.1336,56.4742 L8.2326,55.5732 L13.8286,52.6792 L14.8586,53.7082 L12.2846,59.4962 L11.3846,58.5962 Z M11.1916,55.3802 L12.3496,56.4742 L13.4436,54.1592 L11.1916,55.3802 Z"/><polygon id="Fill-33" points="16.852 62.391 18.717 59.304 14.665 61.105 13.893 60.655 16.98 55.574 18.009 56.152 16.144 59.24 20.196 57.439 20.968 57.889 17.881 62.97"/><polygon id="Fill-35" points="25.278 59.561 26.371 59.947 24.378 65.543 23.284 65.157 24.12 62.841 22.062 62.134 21.226 64.45 20.132 64.064 22.126 58.467 23.22 58.854 22.448 61.105 24.507 61.812"/><path id="Fill-37" d="M34.0258,60.7192 C34.8618,60.7192 35.5058,60.9762 36.0838,61.4902 C36.6628,62.0702 36.9208,62.7122 36.9838,63.5492 C37.0488,64.3852 36.7918,65.0932 36.2128,65.6722 C35.6978,66.2502 34.9908,66.5722 34.2188,66.5722 L31.8388,66.6362 L31.6468,60.7192 L34.0258,60.7192 Z M34.1548,65.5432 C34.6698,65.5432 35.0548,65.3502 35.3768,64.9642 C35.6978,64.5782 35.8268,64.1282 35.8268,63.6142 C35.8268,63.0342 35.6338,62.6492 35.3128,62.3262 C34.9908,62.0052 34.5408,61.8122 34.0258,61.8762 L32.8038,61.9412 L32.9328,65.6722 L34.1548,65.5432 Z"/><path id="Fill-39" d="M38.2069,65.2857 C38.9139,65.2217 39.1719,64.8357 38.9139,63.7417 L38.0779,60.3337 L42.0019,59.3687 L43.4169,65.1567 L42.2589,65.4147 L41.1019,60.7197 L39.4289,61.1047 L40.0079,63.4207 C40.2649,64.4497 40.1369,65.1567 39.8139,65.6077 C39.4929,66.0567 39.0429,66.2507 38.4639,66.3147 L38.2069,65.2857 Z"/><path id="Fill-41" d="M47.0184,57.1167 L49.5914,62.5197 L48.5624,63.0347 L47.6624,61.1697 L47.0824,61.4267 L46.7614,63.8707 L45.5394,64.4497 L45.9254,61.8767 C45.1534,61.9407 44.3174,61.5547 43.9964,60.7837 C43.7384,60.2687 43.7384,59.7547 43.9314,59.3047 C44.1234,58.8537 44.4464,58.4027 44.9594,58.2107 L47.0184,57.1167 Z M47.1474,60.2047 L46.3754,58.5957 L45.2824,59.1107 C44.8964,59.3047 44.7034,59.8187 44.9594,60.2687 C45.1534,60.7197 45.6674,60.9117 46.0534,60.7197 L47.1474,60.2047 Z"/><path id="Fill-43" d="M53.0009,52.3569 C53.5789,51.7779 54.2229,51.4569 55.0589,51.4569 C55.8309,51.4569 56.5379,51.7139 57.1819,52.3569 C57.7609,52.9359 58.0819,53.6439 58.1469,54.4159 C58.2109,55.1869 57.8889,55.8949 57.3749,56.4739 L55.7669,58.2109 L51.4569,54.0939 L53.0009,52.3569 Z M56.4739,55.7019 C56.8599,55.3159 56.9879,54.9299 56.9879,54.4159 C56.9879,53.9649 56.7309,53.5149 56.3459,53.1289 C55.9589,52.7429 55.5089,52.5499 55.0589,52.5499 C54.6079,52.5499 54.1579,52.7429 53.8369,53.1289 L53.0009,53.9649 L55.7019,56.5389 L56.4739,55.7019 Z"/><polygon id="Fill-45" points="60.205 51.006 61.556 48.884 62.52 49.462 60.526 52.55 55.509 49.334 57.438 46.246 58.403 46.825 57.053 48.884 58.146 49.591 59.368 47.661 60.333 48.24 59.111 50.17"/><path id="Fill-47" d="M62.327,47.6616 C62.713,47.0176 62.52,46.5686 61.491,46.1826 L58.211,44.8956 L59.69,41.1006 L65.222,43.2876 L64.771,44.3816 L60.269,42.5806 L59.626,44.1886 L61.812,45.0246 C62.777,45.4106 63.356,45.9256 63.485,46.4396 C63.613,46.9546 63.549,47.4696 63.292,47.9836 L62.327,47.6616 Z"/><path id="Fill-49" d="M66.5077,37.1128 L65.4147,37.3058 L65.0287,39.6218 L66.0577,40.1358 L65.8647,41.3578 L60.3327,38.3358 L60.5907,36.9208 L66.8297,35.8268 L66.5077,37.1128 Z M63.9997,39.1068 L64.2567,37.4998 L61.7477,37.8848 L63.9997,39.1068 Z"/><path id="Fill-51" d="M3.6664,31.0025 C3.6664,30.3985 3.1774,29.9095 2.5734,29.9095 C1.9684,29.9095 1.4794,30.3985 1.4794,31.0025 C1.4794,31.6065 1.9684,32.0955 2.5734,32.0955 C3.1774,32.0955 3.6664,31.6065 3.6664,31.0025"/><path id="Fill-53" d="M64.7069,31.0669 C64.7069,30.4629 64.2179,29.9739 63.6129,29.9739 C63.0099,29.9739 62.5199,30.4629 62.5199,31.0669 C62.5199,31.6709 63.0099,32.1609 63.6129,32.1609 C64.2179,32.1609 64.7069,31.6709 64.7069,31.0669"/><path id="Fill-55" d="M50.2352,40.8442 C49.1412,41.9372 47.5972,42.5802 45.9252,42.5802 L30.6162,42.5802 L29.2662,42.5802 L24.3782,42.5802 C20.9042,42.5802 14.4082,39.8152 14.4082,32.6112 C14.4082,25.7932 20.1322,22.6412 24.1852,22.6412 L28.1732,22.6412 C29.5882,22.6412 30.4882,23.6702 30.4882,24.9562 C30.4882,26.2422 29.4592,27.1432 28.1732,27.1432 L24.3782,27.1432 C22.8982,27.1432 19.2322,28.4942 19.2322,32.6752 C19.2322,36.8562 22.8982,38.0772 24.3782,38.0772 L29.2662,38.0772 L30.6162,38.0772 L45.6682,38.0772 C46.7612,38.0772 47.4052,37.2412 47.4052,36.2772 C47.4052,35.4412 46.8262,34.4762 45.6682,34.4762 L41.4872,34.4762 L35.5692,34.4762 C34.4112,34.4762 33.2542,33.3182 33.2542,32.1602 L33.2542,24.9562 C33.2542,23.7992 34.4122,22.6412 35.5692,22.6412 L43.7382,22.6412 C45.0242,22.6412 46.0532,23.5412 46.0532,24.8272 C46.0532,26.1142 45.0242,27.1432 43.7382,27.1432 L38.0782,27.1432 L38.0782,30.3592 L41.5512,30.3592 L45.9252,30.3592 C47.5972,30.3592 49.1412,31.0672 50.2352,32.1602 C51.3282,33.2542 52.0362,34.7972 52.0362,36.4702 C52.0362,38.2062 51.3282,39.7502 50.2352,40.8442"/></g></g></g></g></svg>