<svg xmlns="http://www.w3.org/2000/svg" xmlns:xlink="http://www.w3.org/1999/xlink" width="31" height="31" viewBox="0 0 31 31"><defs><path id="b1dtgvvgca" d="M0 0L30 0 30 30 0 30z"/></defs><g fill="none" fill-rule="evenodd"><g><g><g><g><g transform="translate(-21.000000, -8969.000000) translate(0.481117, 7475.488309) translate(0.000000, 1453.870104) translate(21.000000, 25.000000) translate(15.000049, 30.248556) scale(-1, 1) translate(-15.000049, -30.248556) translate(0.000000, 15.248556)"><path fill="#CDE1FF" d="M15.197 5.772c-3.642 0-6.797 2.12-8.297 5.192l1.871 1.376c1.047-2.519 3.533-4.295 6.426-4.295 3.835 0 6.955 3.12 6.955 6.955s-3.12 6.955-6.955 6.955c-2.347 0-4.425-1.17-5.686-2.956h-2.63c1.493 3.091 4.66 5.23 8.316 5.23 5.088 0 9.228-4.14 9.228-9.229 0-5.088-4.14-9.228-9.228-9.228"/><mask id="3v411d5axb" fill="#fff"><use xlink:href="#b1dtgvvgca"/></mask><path fill="#CDE1FF" d="M15 28.041c-7.19 0-13.041-5.85-13.041-13.04C1.959 7.808 7.809 1.958 15 1.958c7.191 0 13.041 5.85 13.041 13.041 0 7.191-5.85 13.041-13.041 13.041M15 0C6.729 0 0 6.729 0 15s6.729 15 15 15 15-6.729 15-15S23.271 0 15 0" mask="url(#3v411d5axb)"/></g></g></g></g></g></g></svg>