<svg xmlns="http://www.w3.org/2000/svg" xmlns:xlink="http://www.w3.org/1999/xlink" width="220" height="82" version="1.1" viewBox="0 0 220 82"><title>Yandex</title><defs><polygon id="path-1" points="0 0 49.143 0 49.143 49.143 0 49.143"/></defs><g id="Main" fill="none" fill-rule="evenodd" stroke="none" stroke-width="1"><g id="Desktop-HD-/-Export" transform="translate(-609.000000, -6440.000000)"><g id="Reviews" transform="translate(-102.000000, 5637.870104)"><g id="Group" transform="translate(711.747253, 802.129896)"><text id="Отзывы-Яндекса" fill="#414141" font-family="SFUIDisplay-Medium, SF UI Display" font-size="16" font-weight="400" line-spacing="30"><tspan x="76.517" y="24.297">Отзывы Яндекса</tspan></text><g id="Group-6" transform="translate(17.768837, 16.054235)"><g id="Group-3"><mask id="mask-2" fill="#fff"><use xlink:href="#path-1"/></mask><path id="Fill-1" fill="#FC3F1D" d="M49.1428892,24.5714446 C49.1428892,38.1418781 38.1418781,49.1428892 24.5714446,49.1428892 C11.0010112,49.1428892 9.59232693e-14,38.1418781 9.59232693e-14,24.5714446 C9.59232693e-14,11.0008507 11.0010112,1.03028697e-13 24.5714446,1.03028697e-13 C38.1418781,1.03028697e-13 49.1428892,11.0008507 49.1428892,24.5714446" mask="url(#mask-2)"/></g><path id="Fill-4" fill="#FFF" d="M27.0746172,14.9184573 L25.0047959,14.9184573 C21.2100433,14.9184573 19.2169355,16.8223334 19.2169355,19.6401921 C19.2169355,22.8388901 20.5968164,24.3237305 23.4332917,26.2279276 L25.7714499,27.7890001 L19.0253121,37.8038089 L14.0041057,37.8038089 L20.0601425,28.8552862 C16.5722441,26.3800708 14.6173326,23.9812478 14.6173326,19.9067636 C14.6173326,14.8041895 18.1821051,11.3389199 24.9664391,11.3389199 L31.7125769,11.3389199 L31.7125769,37.8038089 L27.0746172,37.8038089 L27.0746172,14.9184573 Z"/></g><g id="Group-6" fill="#F7C70A" transform="translate(76.082834, 38.389400)"><polygon id="Fill-1" points="11.077 0 8.077 7.385 0 8.077 6.23 13.154 4.154 21 11.077 16.846 18 21 15.923 13.154 22.154 8.077 14.077 7.385"/><polygon id="Fill-2" points="37.039 0 34.039 7.385 25.962 8.077 32.193 13.154 30.116 21 37.039 16.846 43.962 21 41.885 13.154 48.116 8.077 40.039 7.385"/><polygon id="Fill-3" points="63.001 0 60.001 7.385 51.924 8.077 58.155 13.154 56.078 21 63.001 16.846 69.924 21 67.847 13.154 74.078 8.077 66.001 7.385"/><polygon id="Fill-4" points="88.963 0 85.964 7.385 77.887 8.077 84.117 13.154 82.04 21 88.963 16.846 95.887 21 93.81 13.154 100.04 8.077 91.963 7.385"/><polygon id="Fill-5" points="114.926 0 111.926 7.385 103.849 8.077 110.08 13.154 108.003 21 114.926 16.846 121.849 21 119.772 13.154 126.003 8.077 117.926 7.385"/></g><rect id="Rectangle" width="217.253" height="80" x="1" y="1" stroke="#E9E9EA" stroke-width="2" rx="15"/></g></g></g></g></svg>