<svg xmlns="http://www.w3.org/2000/svg" xmlns:xlink="http://www.w3.org/1999/xlink" width="220" height="82" viewBox="0 0 220 82">
    <defs>
        <path id="c021yiigia" d="M0 0L49.143 0 49.143 49.143 0 49.143z"/>
    </defs>
    <g fill="none" fill-rule="evenodd">
        <g>
            <g>
                <g transform="translate(-609.000000, -6440.000000) translate(-102.000000, 5637.870104) translate(711.747253, 802.129896)">
                    <text fill="#414141" font-family="SFUIDisplay-Medium, SF UI Display" font-size="16" font-weight="400">
                        <tspan x="76.517" y="24.297">Отзывы Яндекса</tspan>
                    </text>
                    <g>
                        <g transform="translate(17.768837, 16.054235)">
                            <mask id="xja4vcoijb" fill="#fff">
                                <use xlink:href="#c021yiigia"/>
                            </mask>
                            <path fill="#FC3F1D" d="M49.143 24.571c0 13.57-11.001 24.572-24.572 24.572C11.001 49.143 0 38.142 0 24.57 0 11.001 11.001 0 24.571 0c13.57 0 24.572 11 24.572 24.571" mask="url(#xja4vcoijb)"/>
                        </g>
                        <path fill="#FFF" d="M27.075 14.918h-2.07c-3.795 0-5.788 1.904-5.788 4.722 0 3.199 1.38 4.684 4.216 6.588l2.338 1.561-6.746 10.015h-5.02l6.055-8.949c-3.488-2.475-5.443-4.874-5.443-8.948 0-5.103 3.565-8.568 10.35-8.568h6.746v26.465h-4.638V14.918z" transform="translate(17.768837, 16.054235)"/>
                    </g>
                    <g fill="#F7C70A">
                        <path d="M11.077 0L8.077 7.385 0 8.077 6.23 13.154 4.154 21 11.077 16.846 18 21 15.923 13.154 22.154 8.077 14.077 7.385zM37.039 0L34.039 7.385 25.962 8.077 32.193 13.154 30.116 21 37.039 16.846 43.962 21 41.885 13.154 48.116 8.077 40.039 7.385zM63.001 0L60.001 7.385 51.924 8.077 58.155 13.154 56.078 21 63.001 16.846 69.924 21 67.847 13.154 74.078 8.077 66.001 7.385zM88.963 0L85.964 7.385 77.887 8.077 84.117 13.154 82.04 21 88.963 16.846 95.887 21 93.81 13.154 100.04 8.077 91.963 7.385zM114.926 0L111.926 7.385 103.849 8.077 110.08 13.154 108.003 21 114.926 16.846 121.849 21 119.772 13.154 126.003 8.077 117.926 7.385z" transform="translate(76.082834, 38.389400)"/>
                    </g>
                    <rect width="217.253" height="80" x="1" y="1" stroke="#E9E9EA" stroke-width="2" rx="15"/>
                </g>
            </g>
        </g>
    </g>
</svg>
