<?xml version="1.0" encoding="UTF-8"?>
<svg width="220px" height="82px" viewBox="0 0 220 82" version="1.1" xmlns="http://www.w3.org/2000/svg" xmlns:xlink="http://www.w3.org/1999/xlink">
    <title>Yandex</title>
    <defs>
        <polygon id="path-1" points="0 0 49.142825 0 49.142825 49.1428571 0 49.1428571"></polygon>
    </defs>
    <g id="Main" stroke="none" stroke-width="1" fill="none" fill-rule="evenodd">
        <g id="Desktop-HD-/-Export" transform="translate(-609.000000, -6440.000000)">
            <g id="Reviews" transform="translate(-102.000000, 5637.870104)">
                <g id="Group" transform="translate(711.747253, 802.129896)">
                    <text id="Отзывы-Яндекса" font-family="SFUIDisplay-Medium, SF UI Display" font-size="16" font-weight="400" line-spacing="30" fill="#414141">
                        <tspan x="76.5168777" y="24.2967033">Отзывы Яндекса</tspan>
                    </text>
                    <g id="Group-6" transform="translate(17.768837, 16.054235)">
                        <g id="Group-3">
                            <mask id="mask-2" fill="white">
                                <use xlink:href="#path-1"></use>
                            </mask>
                            <g id="Clip-2"></g>
                            <path d="M49.1428892,24.5714446 C49.1428892,38.1418781 38.1418781,49.1428892 24.5714446,49.1428892 C11.0010112,49.1428892 9.59232693e-14,38.1418781 9.59232693e-14,24.5714446 C9.59232693e-14,11.0008507 11.0010112,1.03028697e-13 24.5714446,1.03028697e-13 C38.1418781,1.03028697e-13 49.1428892,11.0008507 49.1428892,24.5714446" id="Fill-1" fill="#FC3F1D" mask="url(#mask-2)"></path>
                        </g>
                        <path d="M27.0746172,14.9184573 L25.0047959,14.9184573 C21.2100433,14.9184573 19.2169355,16.8223334 19.2169355,19.6401921 C19.2169355,22.8388901 20.5968164,24.3237305 23.4332917,26.2279276 L25.7714499,27.7890001 L19.0253121,37.8038089 L14.0041057,37.8038089 L20.0601425,28.8552862 C16.5722441,26.3800708 14.6173326,23.9812478 14.6173326,19.9067636 C14.6173326,14.8041895 18.1821051,11.3389199 24.9664391,11.3389199 L31.7125769,11.3389199 L31.7125769,37.8038089 L27.0746172,37.8038089 L27.0746172,14.9184573 Z" id="Fill-4" fill="#FFFFFF"></path>
                    </g>
                    <g id="Group-6" transform="translate(76.082834, 38.389400)" fill="#F7C70A">
                        <polygon id="Fill-1" points="11.0766816 0 8.07663258 7.38468329 0 8.07697589 6.23046176 13.1539027 4.15358395 21 11.0766816 16.8460727 17.9997793 21 15.9229015 13.1539027 22.1535349 8.07697589 14.0767307 7.38468329"></polygon>
                        <polygon id="Fill-2" points="37.0389416 0 34.0388926 7.38468329 25.9620883 8.07697589 32.1928934 13.1539027 30.1160156 21 37.0389416 16.8460727 43.9620393 21 41.8849898 13.1539027 48.1157949 8.07697589 40.038819 7.38468329"></polygon>
                        <polygon id="Fill-3" points="63.0012016 0 60.0011526 7.38468329 51.9243483 8.07697589 58.1551534 13.1539027 56.0781039 21 63.0012016 16.8460727 69.9242993 21 67.8472498 13.1539027 74.0780549 8.07697589 66.001079 7.38468329"></polygon>
                        <polygon id="Fill-4" points="88.9634616 0 85.9635842 7.38468329 77.8866083 8.07697589 84.1174134 13.1539027 82.0403639 21 88.9634616 16.8460727 95.8865593 21 93.8095098 13.1539027 100.040315 8.07697589 91.963339 7.38468329"></polygon>
                        <polygon id="Fill-5" points="114.925722 0 111.925844 7.38468329 103.848868 8.07697589 110.079673 13.1539027 108.002624 21 114.925722 16.8460727 121.848819 21 119.77177 13.1539027 126.002575 8.07697589 117.925771 7.38468329"></polygon>
                    </g>
                    <rect id="Rectangle" stroke="#E9E9EA" stroke-width="2" x="1" y="1" width="217.252747" height="80" rx="15"></rect>
                </g>
            </g>
        </g>
    </g>
</svg>